<svg width="104" height="73" viewBox="0 0 104 73" fill="none" xmlns="http://www.w3.org/2000/svg">
<rect x="9.2619" y="1.91339" width="94.0206" height="0.263466" fill="#F0F0F0"/>
<rect x="9.26181" y="23.5176" width="94.0206" height="0.263466" fill="#F0F0F0"/>
<rect x="9.26181" y="45.1218" width="94.0206" height="0.263466" fill="#F0F0F0"/>
<rect x="9.26181" y="12.7156" width="94.0206" height="0.263466" fill="#F0F0F0"/>
<rect x="9.26181" y="34.3197" width="94.0206" height="0.263466" fill="#F0F0F0"/>
<rect x="9.26181" y="55.924" width="94.0206" height="0.263466" fill="#F0F0F0"/>
<g filter="url(#filter0_b_215_159)">
<rect x="14.3168" y="32.212" width="12.8057" height="32.4063" fill="#0052B4"/>
</g>
<g filter="url(#filter1_b_215_159)">
<rect x="61.8326" y="45.9122" width="13.1427" height="18.7061" fill="#0052B4"/>
</g>
<g filter="url(#filter2_b_215_159)">
<rect x="30.1554" y="41.1698" width="13.1427" height="23.4485" fill="#0052B4"/>
</g>
<g filter="url(#filter3_b_215_159)">
<rect x="78.0081" y="6.91919" width="12.8057" height="57.6991" fill="#0052B4"/>
</g>
<g filter="url(#filter4_b_215_159)">
<rect x="46.331" y="17.7213" width="12.4687" height="46.8969" fill="#0052B4"/>
</g>
<path d="M17.3497 54.0797C17.3497 54.0797 23.5779 46.5675 35.2505 39.1833C56.2659 25.8888 59.2797 47.3322 71.7243 42.0586C82.054 37.6812 94.8578 25.8888 94.8578 25.8888" stroke="#018183" stroke-width="0.526932" stroke-linecap="round"/>
<path d="M70.7996 42.6189C70.7996 43.4636 69.9099 44.1997 68.7409 44.1997C67.5719 44.1997 66.6822 43.4636 66.6822 42.6189C66.6822 41.7742 67.5719 41.0381 68.7409 41.0381C69.9099 41.0381 70.7996 41.7742 70.7996 42.6189Z" fill="#018183" stroke="white" stroke-width="0.263466"/>
<g filter="url(#filter5_b_215_159)">
<rect x="57.7887" y="26.9426" width="20.2195" height="9.48478" rx="1.05386" fill="#2E3A59" fill-opacity="0.4"/>
</g>
<path d="M65.6552 31.4695H65.2752L65.0123 30.7221H63.8524L63.5894 31.4695H63.2274L64.2036 28.7877H64.6791L65.6552 31.4695ZM64.9024 30.4159L64.4323 29.0993L63.9605 30.4159H64.9024ZM67.775 29.4577L66.961 31.4695H66.6206L65.8119 29.4577H66.1793L66.8025 31.0588L67.4202 29.4577H67.775ZM69.8498 31.2408C69.8498 31.5817 69.7724 31.8321 69.6175 31.9918C69.4626 32.1515 69.2243 32.2313 68.9025 32.2313C68.7956 32.2313 68.6912 32.2235 68.5891 32.2079C68.4883 32.1935 68.3886 32.1725 68.2901 32.1449V31.7991H68.3082C68.3634 31.8207 68.451 31.8471 68.5711 31.8783C68.6912 31.9107 68.8112 31.9269 68.9313 31.9269C69.0466 31.9269 69.142 31.9131 69.2177 31.8855C69.2933 31.8579 69.3522 31.8195 69.3942 31.7703C69.4362 31.7234 69.4662 31.667 69.4842 31.601C69.5022 31.5349 69.5112 31.4611 69.5112 31.3794V31.1957C69.4092 31.2774 69.3113 31.3386 69.2177 31.3794C69.1252 31.4191 69.007 31.4389 68.8629 31.4389C68.6227 31.4389 68.4318 31.3524 68.2901 31.1795C68.1497 31.0054 68.0794 30.7605 68.0794 30.4447C68.0794 30.2718 68.1034 30.1229 68.1515 29.998C68.2007 29.872 68.2673 29.7633 68.3514 29.672C68.4294 29.5868 68.5243 29.5208 68.6359 29.4739C68.7476 29.4259 68.8587 29.4019 68.9691 29.4019C69.0856 29.4019 69.1829 29.4139 69.2609 29.4379C69.3402 29.4607 69.4236 29.4961 69.5112 29.5442L69.5329 29.4577H69.8498V31.2408ZM69.5112 30.9166V29.8197C69.4212 29.7789 69.3371 29.7501 69.2591 29.7333C69.1823 29.7153 69.1054 29.7063 69.0286 29.7063C68.8425 29.7063 68.696 29.7687 68.5891 29.8936C68.4823 30.0184 68.4288 30.1998 68.4288 30.4375C68.4288 30.6632 68.4684 30.8343 68.5477 30.9508C68.6269 31.0673 68.7584 31.1255 68.9421 31.1255C69.0406 31.1255 69.139 31.1069 69.2375 31.0697C69.3371 31.0312 69.4284 30.9802 69.5112 30.9166Z" fill="white"/>
<path d="M64.656 33.081C64.656 33.1829 64.6379 33.2776 64.6019 33.3651C64.5669 33.4515 64.5175 33.5267 64.4537 33.5905C64.3745 33.6697 64.2808 33.7294 64.1728 33.7696C64.0647 33.8087 63.9283 33.8282 63.7637 33.8282H63.458V34.685H63.1523V32.3864H63.776C63.9139 32.3864 64.0307 32.3982 64.1265 32.4219C64.2222 32.4445 64.3071 32.4805 64.3812 32.5299C64.4686 32.5886 64.5361 32.6617 64.5834 32.7491C64.6318 32.8366 64.656 32.9473 64.656 33.081ZM64.3379 33.0888C64.3379 33.0095 64.3241 32.9406 64.2963 32.8819C64.2685 32.8232 64.2263 32.7754 64.1697 32.7383C64.1203 32.7064 64.0637 32.6838 63.9999 32.6704C63.9371 32.656 63.8573 32.6488 63.7606 32.6488H63.458V33.5673H63.7158C63.8393 33.5673 63.9397 33.5565 64.0168 33.5349C64.094 33.5123 64.1568 33.4768 64.2052 33.4284C64.2536 33.379 64.2875 33.327 64.3071 33.2725C64.3277 33.2179 64.3379 33.1567 64.3379 33.0888ZM66.5069 33.8236C66.5069 34.1045 66.4349 34.3263 66.2908 34.4889C66.1467 34.6515 65.9537 34.7329 65.7119 34.7329C65.468 34.7329 65.274 34.6515 65.1299 34.4889C64.9868 34.3263 64.9153 34.1045 64.9153 33.8236C64.9153 33.5426 64.9868 33.3208 65.1299 33.1582C65.274 32.9946 65.468 32.9128 65.7119 32.9128C65.9537 32.9128 66.1467 32.9946 66.2908 33.1582C66.4349 33.3208 66.5069 33.5426 66.5069 33.8236ZM66.2074 33.8236C66.2074 33.6003 66.1637 33.4346 66.0762 33.3265C65.9887 33.2174 65.8673 33.1629 65.7119 33.1629C65.5544 33.1629 65.4319 33.2174 65.3445 33.3265C65.258 33.4346 65.2148 33.6003 65.2148 33.8236C65.2148 34.0397 65.2585 34.2039 65.346 34.316C65.4335 34.4272 65.5554 34.4828 65.7119 34.4828C65.8663 34.4828 65.9872 34.4277 66.0747 34.3176C66.1632 34.2064 66.2074 34.0418 66.2074 33.8236ZM67.2695 32.672H66.9422V32.3709H67.2695V32.672ZM67.251 34.685H66.9608V32.9606H67.251V34.685ZM69.2671 34.685H68.9769V33.7032C68.9769 33.6239 68.9723 33.5498 68.963 33.4809C68.9537 33.4109 68.9368 33.3563 68.9121 33.3172C68.8863 33.274 68.8493 33.2421 68.8009 33.2215C68.7525 33.1999 68.6898 33.1891 68.6126 33.1891C68.5333 33.1891 68.4505 33.2087 68.364 33.2478C68.2776 33.2869 68.1947 33.3368 68.1155 33.3975V34.685H67.8253V32.9606H68.1155V33.1521C68.2061 33.0769 68.2997 33.0183 68.3965 32.9761C68.4932 32.9339 68.5925 32.9128 68.6944 32.9128C68.8807 32.9128 69.0227 32.9689 69.1205 33.081C69.2182 33.1932 69.2671 33.3548 69.2671 33.5658V34.685ZM70.7213 34.6696C70.6668 34.684 70.6071 34.6958 70.5423 34.7051C70.4785 34.7143 70.4213 34.719 70.3709 34.719C70.1949 34.719 70.0611 34.6716 69.9695 34.5769C69.8779 34.4823 69.8321 34.3305 69.8321 34.1215V33.2045H69.6361V32.9606H69.8321V32.4651H70.1224V32.9606H70.7213V33.2045H70.1224V33.9903C70.1224 34.0809 70.1244 34.1519 70.1285 34.2033C70.1327 34.2538 70.1471 34.3011 70.1718 34.3454C70.1944 34.3865 70.2253 34.4169 70.2644 34.4365C70.3045 34.455 70.3652 34.4642 70.4465 34.4642C70.4939 34.4642 70.5433 34.4576 70.5947 34.4442C70.6462 34.4298 70.6833 34.4179 70.7059 34.4087H70.7213V34.6696Z" fill="white"/>
<path d="M1.38891 2.36241C1.38891 2.51816 1.33745 2.64543 1.23454 2.74423C1.13231 2.84234 1.00675 2.8914 0.857863 2.8914C0.782391 2.8914 0.71378 2.87974 0.65203 2.85641C0.590281 2.83308 0.535735 2.79843 0.488393 2.75246C0.429388 2.69552 0.383762 2.62004 0.351515 2.52605C0.319953 2.43205 0.304173 2.31884 0.304173 2.18642C0.304173 2.05057 0.318581 1.93016 0.347398 1.82519C0.376901 1.72021 0.423556 1.6269 0.487364 1.54525C0.547742 1.46772 0.625615 1.40735 0.720984 1.36412C0.816354 1.32021 0.927503 1.29826 1.05443 1.29826C1.09491 1.29826 1.12888 1.29997 1.15632 1.3034C1.18377 1.30683 1.21155 1.31301 1.23968 1.32193V1.5185H1.22939C1.21018 1.5082 1.18102 1.4986 1.14191 1.48968C1.10349 1.48007 1.06404 1.47527 1.02356 1.47527C0.876045 1.47527 0.758377 1.52158 0.670555 1.61421C0.582733 1.70615 0.531618 1.83068 0.51721 1.9878C0.574843 1.9528 0.631447 1.92639 0.687022 1.90855C0.743283 1.89002 0.80812 1.88076 0.881534 1.88076C0.946714 1.88076 1.004 1.88694 1.0534 1.89929C1.10349 1.91095 1.15461 1.93496 1.20675 1.97133C1.26713 2.01318 1.31241 2.06601 1.3426 2.12982C1.37347 2.19363 1.38891 2.27116 1.38891 2.36241ZM1.17999 2.37064C1.17999 2.30684 1.17039 2.25401 1.15117 2.21215C1.13265 2.1703 1.10178 2.13394 1.05855 2.10306C1.02699 2.08111 0.991998 2.0667 0.953575 2.05984C0.915153 2.05298 0.875016 2.04954 0.833163 2.04954C0.774844 2.04954 0.720641 2.05641 0.670555 2.07013C0.620469 2.08385 0.569011 2.10512 0.516181 2.13394C0.514809 2.14903 0.513779 2.16378 0.513093 2.17819C0.512407 2.19191 0.512064 2.20941 0.512064 2.23068C0.512064 2.33908 0.523042 2.42485 0.544997 2.48797C0.567639 2.5504 0.598514 2.5998 0.637622 2.63617C0.669183 2.66636 0.703146 2.68866 0.739509 2.70306C0.776559 2.71679 0.816697 2.72365 0.859922 2.72365C0.959407 2.72365 1.03762 2.69346 1.09457 2.63308C1.15152 2.57202 1.17999 2.48454 1.17999 2.37064ZM2.70418 2.09277C2.70418 2.3679 2.66096 2.56996 2.57451 2.69895C2.48875 2.82725 2.3553 2.8914 2.17416 2.8914C1.99029 2.8914 1.85581 2.82622 1.77073 2.69586C1.68634 2.5655 1.64414 2.36516 1.64414 2.09483C1.64414 1.82244 1.68703 1.62141 1.77279 1.49174C1.85855 1.36138 1.99235 1.2962 2.17416 1.2962C2.35804 1.2962 2.49218 1.36241 2.57657 1.49483C2.66164 1.62656 2.70418 1.82587 2.70418 2.09277ZM2.43351 2.56001C2.45753 2.50444 2.47365 2.43926 2.48188 2.36447C2.4908 2.289 2.49526 2.19843 2.49526 2.09277C2.49526 1.98848 2.4908 1.89791 2.48188 1.82107C2.47365 1.74423 2.45718 1.67905 2.43248 1.62553C2.40847 1.5727 2.37554 1.5329 2.33368 1.50615C2.29252 1.47939 2.23934 1.46601 2.17416 1.46601C2.10967 1.46601 2.05615 1.47939 2.01361 1.50615C1.97176 1.5329 1.93849 1.57339 1.91379 1.62759C1.89046 1.67836 1.87433 1.74457 1.86541 1.82622C1.85718 1.90786 1.85306 1.9974 1.85306 2.09483C1.85306 2.20186 1.85684 2.2914 1.86439 2.36344C1.87193 2.43548 1.88806 2.49998 1.91276 2.55692C1.9354 2.61044 1.9673 2.65126 2.00847 2.67939C2.05032 2.70752 2.10555 2.72159 2.17416 2.72159C2.23866 2.72159 2.29217 2.70821 2.33471 2.68145C2.37725 2.65469 2.41019 2.61421 2.43351 2.56001ZM3.7529 1.75212C3.7529 1.90581 3.72031 2.02004 3.65513 2.09483C3.59064 2.16961 3.49733 2.20701 3.3752 2.20701C3.25033 2.20701 3.15599 2.16961 3.09218 2.09483C3.02837 2.02004 2.99647 1.90615 2.99647 1.75315C2.99647 1.59946 3.02906 1.48522 3.09424 1.41043C3.15942 1.33565 3.25307 1.29826 3.3752 1.29826C3.49938 1.29826 3.59338 1.33599 3.65719 1.41146C3.721 1.48694 3.7529 1.60049 3.7529 1.75212ZM4.46405 1.32707L3.66131 2.8595H3.49149L4.29424 1.32707H4.46405ZM4.95805 2.43445C4.95805 2.58814 4.92546 2.70238 4.86028 2.77716C4.7951 2.85195 4.70145 2.88934 4.57932 2.88934C4.45513 2.88934 4.36114 2.85161 4.29733 2.77613C4.23352 2.70066 4.20162 2.58711 4.20162 2.43548C4.20162 2.28179 4.23386 2.16756 4.29836 2.09277C4.36354 2.01798 4.45719 1.98059 4.57932 1.98059C4.70419 1.98059 4.79853 2.01798 4.86234 2.09277C4.92615 2.16756 4.95805 2.28145 4.95805 2.43445ZM3.56971 1.75212C3.56971 1.63411 3.55427 1.55177 3.5234 1.50512C3.49321 1.45846 3.44381 1.43513 3.3752 1.43513C3.30522 1.43513 3.25513 1.45846 3.22494 1.50512C3.19475 1.55177 3.17966 1.63445 3.17966 1.75315C3.17966 1.87184 3.19475 1.95452 3.22494 2.00117C3.25513 2.04714 3.30522 2.07013 3.3752 2.07013C3.44381 2.07013 3.49321 2.04714 3.5234 2.00117C3.55427 1.95452 3.56971 1.8715 3.56971 1.75212ZM4.77486 2.43445C4.77486 2.31644 4.75942 2.23411 4.72855 2.18745C4.69836 2.1408 4.64896 2.11747 4.58035 2.11747C4.51037 2.11747 4.46028 2.1408 4.43009 2.18745C4.3999 2.23411 4.38481 2.31678 4.38481 2.43548C4.38481 2.55418 4.3999 2.63685 4.43009 2.68351C4.46028 2.72948 4.51037 2.75246 4.58035 2.75246C4.64896 2.75246 4.69836 2.72948 4.72855 2.68351C4.75942 2.63685 4.77486 2.55384 4.77486 2.43445Z" fill="black"/>
<path d="M1.35386 13.1748C1.35386 13.2461 1.34082 13.3144 1.31475 13.3796C1.28868 13.4447 1.253 13.4996 1.20772 13.5442C1.15832 13.5923 1.09931 13.6293 1.0307 13.6554C0.962777 13.6808 0.883874 13.6935 0.793994 13.6935C0.710289 13.6935 0.629671 13.6845 0.55214 13.6667C0.47461 13.6496 0.409087 13.6286 0.35557 13.6039V13.3868H0.369978C0.426239 13.4225 0.492106 13.453 0.567578 13.4784C0.64305 13.5031 0.71715 13.5154 0.789877 13.5154C0.838591 13.5154 0.88559 13.5086 0.930873 13.4948C0.976842 13.4811 1.01767 13.4571 1.05334 13.4228C1.08353 13.3933 1.10617 13.358 1.12127 13.3168C1.13705 13.2756 1.14494 13.2279 1.14494 13.1737C1.14494 13.1209 1.13568 13.0763 1.11715 13.0399C1.09931 13.0036 1.07427 12.9744 1.04202 12.9525C1.00634 12.9264 0.962777 12.9082 0.911319 12.8979C0.860547 12.8869 0.8036 12.8815 0.740477 12.8815C0.6801 12.8815 0.621781 12.8856 0.56552 12.8938C0.509945 12.902 0.461917 12.9103 0.421437 12.9185V12.1291H1.34357V12.3092H0.620065V12.7168C0.649568 12.714 0.679757 12.712 0.710632 12.7106C0.741507 12.7092 0.768265 12.7086 0.790907 12.7086C0.873926 12.7086 0.946653 12.7158 1.00909 12.7302C1.07153 12.7439 1.12882 12.7686 1.18096 12.8043C1.23585 12.842 1.27839 12.8907 1.30858 12.9504C1.33876 13.0101 1.35386 13.0849 1.35386 13.1748ZM2.70412 12.8948C2.70412 13.17 2.6609 13.372 2.57445 13.501C2.48868 13.6293 2.35524 13.6935 2.1741 13.6935C1.99023 13.6935 1.85575 13.6283 1.77067 13.4979C1.68628 13.3676 1.64408 13.1672 1.64408 12.8969C1.64408 12.6245 1.68697 12.4235 1.77273 12.2938C1.85849 12.1634 1.99228 12.0983 2.1741 12.0983C2.35798 12.0983 2.49211 12.1645 2.57651 12.2969C2.66158 12.4286 2.70412 12.6279 2.70412 12.8948ZM2.43345 13.3621C2.45747 13.3065 2.47359 13.2413 2.48182 13.1665C2.49074 13.0911 2.4952 13.0005 2.4952 12.8948C2.4952 12.7905 2.49074 12.7 2.48182 12.6231C2.47359 12.5463 2.45712 12.4811 2.43242 12.4276C2.40841 12.3748 2.37548 12.335 2.33362 12.3082C2.29246 12.2815 2.23928 12.2681 2.1741 12.2681C2.10961 12.2681 2.05609 12.2815 2.01355 12.3082C1.9717 12.335 1.93842 12.3754 1.91372 12.4297C1.8904 12.4804 1.87427 12.5466 1.86535 12.6283C1.85712 12.7099 1.853 12.7995 1.853 12.8969C1.853 13.0039 1.85678 13.0935 1.86432 13.1655C1.87187 13.2375 1.888 13.302 1.9127 13.359C1.93534 13.4125 1.96724 13.4533 2.00841 13.4815C2.05026 13.5096 2.10549 13.5237 2.1741 13.5237C2.2386 13.5237 2.29211 13.5103 2.33465 13.4835C2.37719 13.4568 2.41012 13.4163 2.43345 13.3621ZM3.75284 12.5542C3.75284 12.7079 3.72025 12.8221 3.65507 12.8969C3.59058 12.9717 3.49727 13.0091 3.37514 13.0091C3.25027 13.0091 3.15593 12.9717 3.09212 12.8969C3.02831 12.8221 2.99641 12.7082 2.99641 12.5552C2.99641 12.4015 3.029 12.2873 3.09418 12.2125C3.15936 12.1377 3.25301 12.1003 3.37514 12.1003C3.49932 12.1003 3.59332 12.1381 3.65713 12.2135C3.72094 12.289 3.75284 12.4025 3.75284 12.5542ZM4.46399 12.1291L3.66125 13.6616H3.49143L4.29418 12.1291H4.46399ZM4.95799 13.2365C4.95799 13.3902 4.9254 13.5044 4.86022 13.5792C4.79504 13.654 4.70139 13.6914 4.57926 13.6914C4.45507 13.6914 4.36108 13.6537 4.29727 13.5782C4.23346 13.5027 4.20156 13.3892 4.20156 13.2375C4.20156 13.0839 4.2338 12.9696 4.2983 12.8948C4.36348 12.82 4.45713 12.7827 4.57926 12.7827C4.70413 12.7827 4.79847 12.82 4.86228 12.8948C4.92609 12.9696 4.95799 13.0835 4.95799 13.2365ZM3.56965 12.5542C3.56965 12.4362 3.55421 12.3538 3.52334 12.3072C3.49315 12.2605 3.44375 12.2372 3.37514 12.2372C3.30515 12.2372 3.25507 12.2605 3.22488 12.3072C3.19469 12.3538 3.1796 12.4365 3.1796 12.5552C3.1796 12.6739 3.19469 12.7566 3.22488 12.8032C3.25507 12.8492 3.30515 12.8722 3.37514 12.8722C3.44375 12.8722 3.49315 12.8492 3.52334 12.8032C3.55421 12.7566 3.56965 12.6736 3.56965 12.5542ZM4.7748 13.2365C4.7748 13.1185 4.75936 13.0362 4.72849 12.9895C4.6983 12.9429 4.6489 12.9195 4.58029 12.9195C4.51031 12.9195 4.46022 12.9429 4.43003 12.9895C4.39984 13.0362 4.38475 13.1188 4.38475 13.2375C4.38475 13.3562 4.39984 13.4389 4.43003 13.4856C4.46022 13.5315 4.51031 13.5545 4.58029 13.5545C4.6489 13.5545 4.6983 13.5315 4.72849 13.4856C4.75936 13.4389 4.7748 13.3559 4.7748 13.2365Z" fill="black"/>
<path d="M1.4012 24.0325H1.17376V24.4637H0.976156V24.0325H0.242362V23.7958L0.984389 22.9313H1.17376V23.8678H1.4012V24.0325ZM0.976156 23.8678V23.1762L0.382328 23.8678H0.976156ZM2.70412 23.697C2.70412 23.9721 2.6609 24.1741 2.57445 24.3031C2.48868 24.4314 2.35524 24.4956 2.1741 24.4956C1.99023 24.4956 1.85575 24.4304 1.77067 24.3C1.68628 24.1697 1.64408 23.9693 1.64408 23.699C1.64408 23.4266 1.68697 23.2256 1.77273 23.0959C1.85849 22.9656 1.99228 22.9004 2.1741 22.9004C2.35798 22.9004 2.49211 22.9666 2.57651 23.099C2.66158 23.2307 2.70412 23.4301 2.70412 23.697ZM2.43345 24.1642C2.45747 24.1086 2.47359 24.0434 2.48182 23.9687C2.49074 23.8932 2.4952 23.8026 2.4952 23.697C2.4952 23.5927 2.49074 23.5021 2.48182 23.4253C2.47359 23.3484 2.45712 23.2832 2.43242 23.2297C2.40841 23.1769 2.37548 23.1371 2.33362 23.1103C2.29246 23.0836 2.23928 23.0702 2.1741 23.0702C2.10961 23.0702 2.05609 23.0836 2.01355 23.1103C1.9717 23.1371 1.93842 23.1776 1.91372 23.2318C1.8904 23.2825 1.87427 23.3488 1.86535 23.4304C1.85712 23.5121 1.853 23.6016 1.853 23.699C1.853 23.806 1.85678 23.8956 1.86432 23.9676C1.87187 24.0397 1.888 24.1042 1.9127 24.1611C1.93534 24.2146 1.96724 24.2554 2.00841 24.2836C2.05026 24.3117 2.10549 24.3258 2.1741 24.3258C2.2386 24.3258 2.29211 24.3124 2.33465 24.2856C2.37719 24.2589 2.41012 24.2184 2.43345 24.1642ZM3.75284 23.3563C3.75284 23.51 3.72025 23.6242 3.65507 23.699C3.59058 23.7738 3.49727 23.8112 3.37514 23.8112C3.25027 23.8112 3.15593 23.7738 3.09212 23.699C3.02831 23.6242 2.99641 23.5103 2.99641 23.3573C2.99641 23.2036 3.029 23.0894 3.09418 23.0146C3.15936 22.9398 3.25301 22.9024 3.37514 22.9024C3.49932 22.9024 3.59332 22.9402 3.65713 23.0157C3.72094 23.0911 3.75284 23.2047 3.75284 23.3563ZM4.46399 22.9313L3.66125 24.4637H3.49143L4.29418 22.9313H4.46399ZM4.95799 24.0386C4.95799 24.1923 4.9254 24.3066 4.86022 24.3814C4.79504 24.4561 4.70139 24.4935 4.57926 24.4935C4.45507 24.4935 4.36108 24.4558 4.29727 24.3803C4.23346 24.3048 4.20156 24.1913 4.20156 24.0397C4.20156 23.886 4.2338 23.7717 4.2983 23.697C4.36348 23.6222 4.45713 23.5848 4.57926 23.5848C4.70413 23.5848 4.79847 23.6222 4.86228 23.697C4.92609 23.7717 4.95799 23.8856 4.95799 24.0386ZM3.56965 23.3563C3.56965 23.2383 3.55421 23.156 3.52334 23.1093C3.49315 23.0626 3.44375 23.0393 3.37514 23.0393C3.30515 23.0393 3.25507 23.0626 3.22488 23.1093C3.19469 23.156 3.1796 23.2386 3.1796 23.3573C3.1796 23.476 3.19469 23.5587 3.22488 23.6054C3.25507 23.6513 3.30515 23.6743 3.37514 23.6743C3.44375 23.6743 3.49315 23.6513 3.52334 23.6054C3.55421 23.5587 3.56965 23.4757 3.56965 23.3563ZM4.7748 24.0386C4.7748 23.9206 4.75936 23.8383 4.72849 23.7916C4.6983 23.745 4.6489 23.7217 4.58029 23.7217C4.51031 23.7217 4.46022 23.745 4.43003 23.7916C4.39984 23.8383 4.38475 23.921 4.38475 24.0397C4.38475 24.1584 4.39984 24.241 4.43003 24.2877C4.46022 24.3337 4.51031 24.3567 4.58029 24.3567C4.6489 24.3567 4.6983 24.3337 4.72849 24.2877C4.75936 24.241 4.7748 24.158 4.7748 24.0386Z" fill="black"/>
<path d="M1.36621 46.0679H0.328812V45.8528C0.400853 45.791 0.472895 45.7293 0.544936 45.6675C0.617664 45.6058 0.685246 45.5444 0.747682 45.4833C0.879415 45.3557 0.969638 45.2545 1.01835 45.1797C1.06707 45.1042 1.09142 45.0229 1.09142 44.9358C1.09142 44.8562 1.06501 44.7941 1.01218 44.7495C0.960032 44.7042 0.886962 44.6816 0.792965 44.6816C0.730529 44.6816 0.662947 44.6926 0.59022 44.7145C0.517492 44.7365 0.44648 44.7701 0.377183 44.8154H0.366891V44.5993C0.415605 44.5752 0.480442 44.5533 0.561403 44.5334C0.64305 44.5135 0.721953 44.5035 0.798111 44.5035C0.95523 44.5035 1.07839 44.5416 1.16758 44.6178C1.25677 44.6933 1.30137 44.7958 1.30137 44.9255C1.30137 44.9838 1.29382 45.0384 1.27873 45.0891C1.26432 45.1392 1.24271 45.1869 1.21389 45.2322C1.18713 45.2747 1.15557 45.3166 1.11921 45.3577C1.08353 45.3989 1.03996 45.4445 0.988506 45.4946C0.915092 45.5667 0.839277 45.6367 0.761061 45.7046C0.682844 45.7718 0.609774 45.8343 0.541849 45.8919H1.36621V46.0679ZM2.70412 45.3011C2.70412 45.5763 2.6609 45.7783 2.57445 45.9073C2.48868 46.0356 2.35524 46.0998 2.1741 46.0998C1.99023 46.0998 1.85575 46.0346 1.77067 45.9042C1.68628 45.7739 1.64408 45.5735 1.64408 45.3032C1.64408 45.0308 1.68697 44.8298 1.77273 44.7001C1.85849 44.5698 1.99228 44.5046 2.1741 44.5046C2.35798 44.5046 2.49211 44.5708 2.57651 44.7032C2.66158 44.8349 2.70412 45.0342 2.70412 45.3011ZM2.43345 45.7684C2.45747 45.7128 2.47359 45.6476 2.48182 45.5728C2.49074 45.4974 2.4952 45.4068 2.4952 45.3011C2.4952 45.1969 2.49074 45.1063 2.48182 45.0294C2.47359 44.9526 2.45712 44.8874 2.43242 44.8339C2.40841 44.7811 2.37548 44.7413 2.33362 44.7145C2.29246 44.6878 2.23928 44.6744 2.1741 44.6744C2.10961 44.6744 2.05609 44.6878 2.01355 44.7145C1.9717 44.7413 1.93842 44.7818 1.91372 44.836C1.8904 44.8867 1.87427 44.9529 1.86535 45.0346C1.85712 45.1162 1.853 45.2058 1.853 45.3032C1.853 45.4102 1.85678 45.4998 1.86432 45.5718C1.87187 45.6439 1.888 45.7083 1.9127 45.7653C1.93534 45.8188 1.96724 45.8596 2.00841 45.8878C2.05026 45.9159 2.10549 45.93 2.1741 45.93C2.2386 45.93 2.29211 45.9166 2.33465 45.8898C2.37719 45.8631 2.41012 45.8226 2.43345 45.7684ZM3.75284 44.9605C3.75284 45.1142 3.72025 45.2284 3.65507 45.3032C3.59058 45.378 3.49727 45.4154 3.37514 45.4154C3.25027 45.4154 3.15593 45.378 3.09212 45.3032C3.02831 45.2284 2.99641 45.1145 2.99641 44.9615C2.99641 44.8078 3.029 44.6936 3.09418 44.6188C3.15936 44.544 3.25301 44.5066 3.37514 44.5066C3.49932 44.5066 3.59332 44.5444 3.65713 44.6198C3.72094 44.6953 3.75284 44.8089 3.75284 44.9605ZM4.46399 44.5354L3.66125 46.0679H3.49143L4.29418 44.5354H4.46399ZM4.95799 45.6428C4.95799 45.7965 4.9254 45.9108 4.86022 45.9855C4.79504 46.0603 4.70139 46.0977 4.57926 46.0977C4.45507 46.0977 4.36108 46.06 4.29727 45.9845C4.23346 45.909 4.20156 45.7955 4.20156 45.6439C4.20156 45.4902 4.2338 45.3759 4.2983 45.3011C4.36348 45.2264 4.45713 45.189 4.57926 45.189C4.70413 45.189 4.79847 45.2264 4.86228 45.3011C4.92609 45.3759 4.95799 45.4898 4.95799 45.6428ZM3.56965 44.9605C3.56965 44.8425 3.55421 44.7601 3.52334 44.7135C3.49315 44.6668 3.44375 44.6435 3.37514 44.6435C3.30515 44.6435 3.25507 44.6668 3.22488 44.7135C3.19469 44.7601 3.1796 44.8428 3.1796 44.9615C3.1796 45.0802 3.19469 45.1629 3.22488 45.2095C3.25507 45.2555 3.30515 45.2785 3.37514 45.2785C3.44375 45.2785 3.49315 45.2555 3.52334 45.2095C3.55421 45.1629 3.56965 45.0799 3.56965 44.9605ZM4.7748 45.6428C4.7748 45.5248 4.75936 45.4425 4.72849 45.3958C4.6983 45.3492 4.6489 45.3258 4.58029 45.3258C4.51031 45.3258 4.46022 45.3492 4.43003 45.3958C4.39984 45.4425 4.38475 45.5252 4.38475 45.6439C4.38475 45.7626 4.39984 45.8452 4.43003 45.8919C4.46022 45.9379 4.51031 45.9608 4.58029 45.9608C4.6489 45.9608 4.6983 45.9379 4.72849 45.8919C4.75936 45.8452 4.7748 45.7622 4.7748 45.6428Z" fill="black"/>
<path d="M1.27873 56.8701H0.449224V56.7136H0.768265V55.6865H0.449224V55.5466C0.492449 55.5466 0.538761 55.5431 0.588161 55.5363C0.637561 55.5287 0.674954 55.5181 0.70034 55.5044C0.731901 55.4872 0.756601 55.4656 0.77444 55.4395C0.792965 55.4128 0.8036 55.3771 0.806344 55.3325H0.965864V56.7136H1.27873V56.8701ZM2.70412 56.1033C2.70412 56.3785 2.6609 56.5805 2.57445 56.7095C2.48868 56.8378 2.35524 56.902 2.1741 56.902C1.99023 56.902 1.85575 56.8368 1.77067 56.7064C1.68628 56.5761 1.64408 56.3757 1.64408 56.1054C1.64408 55.833 1.68697 55.632 1.77273 55.5023C1.85849 55.3719 1.99228 55.3068 2.1741 55.3068C2.35798 55.3068 2.49211 55.373 2.57651 55.5054C2.66158 55.6371 2.70412 55.8364 2.70412 56.1033ZM2.43345 56.5706C2.45747 56.515 2.47359 56.4498 2.48182 56.375C2.49074 56.2996 2.4952 56.209 2.4952 56.1033C2.4952 55.999 2.49074 55.9085 2.48182 55.8316C2.47359 55.7548 2.45712 55.6896 2.43242 55.6361C2.40841 55.5833 2.37548 55.5435 2.33362 55.5167C2.29246 55.4899 2.23928 55.4766 2.1741 55.4766C2.10961 55.4766 2.05609 55.4899 2.01355 55.5167C1.9717 55.5435 1.93842 55.5839 1.91372 55.6381C1.8904 55.6889 1.87427 55.7551 1.86535 55.8368C1.85712 55.9184 1.853 56.008 1.853 56.1054C1.853 56.2124 1.85678 56.302 1.86432 56.374C1.87187 56.446 1.888 56.5105 1.9127 56.5675C1.93534 56.621 1.96724 56.6618 2.00841 56.69C2.05026 56.7181 2.10549 56.7321 2.1741 56.7321C2.2386 56.7321 2.29211 56.7188 2.33465 56.692C2.37719 56.6653 2.41012 56.6248 2.43345 56.5706ZM3.75284 55.7627C3.75284 55.9164 3.72025 56.0306 3.65507 56.1054C3.59058 56.1802 3.49727 56.2176 3.37514 56.2176C3.25027 56.2176 3.15593 56.1802 3.09212 56.1054C3.02831 56.0306 2.99641 55.9167 2.99641 55.7637C2.99641 55.61 3.029 55.4958 3.09418 55.421C3.15936 55.3462 3.25301 55.3088 3.37514 55.3088C3.49932 55.3088 3.59332 55.3466 3.65713 55.422C3.72094 55.4975 3.75284 55.611 3.75284 55.7627ZM4.46399 55.3376L3.66125 56.8701H3.49143L4.29418 55.3376H4.46399ZM4.95799 56.445C4.95799 56.5987 4.9254 56.7129 4.86022 56.7877C4.79504 56.8625 4.70139 56.8999 4.57926 56.8999C4.45507 56.8999 4.36108 56.8622 4.29727 56.7867C4.23346 56.7112 4.20156 56.5977 4.20156 56.446C4.20156 56.2924 4.2338 56.1781 4.2983 56.1033C4.36348 56.0285 4.45713 55.9912 4.57926 55.9912C4.70413 55.9912 4.79847 56.0285 4.86228 56.1033C4.92609 56.1781 4.95799 56.292 4.95799 56.445ZM3.56965 55.7627C3.56965 55.6447 3.55421 55.5623 3.52334 55.5157C3.49315 55.469 3.44375 55.4457 3.37514 55.4457C3.30515 55.4457 3.25507 55.469 3.22488 55.5157C3.19469 55.5623 3.1796 55.645 3.1796 55.7637C3.1796 55.8824 3.19469 55.9651 3.22488 56.0117C3.25507 56.0577 3.30515 56.0807 3.37514 56.0807C3.44375 56.0807 3.49315 56.0577 3.52334 56.0117C3.55421 55.9651 3.56965 55.8821 3.56965 55.7627ZM4.7748 56.445C4.7748 56.327 4.75936 56.2447 4.72849 56.198C4.6983 56.1514 4.6489 56.128 4.58029 56.128C4.51031 56.128 4.46022 56.1514 4.43003 56.198C4.39984 56.2447 4.38475 56.3273 4.38475 56.446C4.38475 56.5647 4.39984 56.6474 4.43003 56.6941C4.46022 56.74 4.51031 56.763 4.58029 56.763C4.6489 56.763 4.6983 56.74 4.72849 56.6941C4.75936 56.6474 4.7748 56.5644 4.7748 56.445Z" fill="black"/>
<path d="M1.23139 34.528C1.26432 34.5575 1.29142 34.5945 1.31269 34.6391C1.33396 34.6837 1.3446 34.7413 1.3446 34.812C1.3446 34.882 1.3319 34.9461 1.30652 35.0045C1.28113 35.0628 1.24545 35.1136 1.19948 35.1568C1.14803 35.2048 1.08731 35.2405 1.01732 35.2638C0.948026 35.2865 0.871867 35.2978 0.788848 35.2978C0.703771 35.2978 0.620065 35.2875 0.537732 35.2669C0.455399 35.247 0.387817 35.225 0.334987 35.201V34.9859H0.350424C0.408744 35.0244 0.477355 35.0563 0.556257 35.0816C0.63516 35.107 0.711318 35.1197 0.784732 35.1197C0.827956 35.1197 0.873926 35.1125 0.92264 35.0981C0.971353 35.0837 1.0108 35.0624 1.04099 35.0343C1.07255 35.0041 1.09588 34.9708 1.11098 34.9345C1.12676 34.8981 1.13465 34.8521 1.13465 34.7966C1.13465 34.7417 1.12573 34.6964 1.10789 34.6607C1.09074 34.6244 1.06672 34.5959 1.03585 34.5753C1.00497 34.554 0.96758 34.5396 0.923669 34.5321C0.879758 34.5238 0.832416 34.5197 0.781644 34.5197H0.689019V34.3489H0.761061C0.865349 34.3489 0.948369 34.3273 1.01012 34.284C1.07255 34.2401 1.10377 34.1763 1.10377 34.0926C1.10377 34.0556 1.09588 34.0233 1.0801 33.9959C1.06432 33.9678 1.04237 33.9448 1.01424 33.9269C0.984732 33.9091 0.953171 33.8967 0.919552 33.8899C0.885933 33.883 0.847854 33.8796 0.805315 33.8796C0.740134 33.8796 0.670837 33.8912 0.597424 33.9146C0.52401 33.9379 0.454713 33.9708 0.389533 34.0134H0.379241V33.7983C0.427955 33.7743 0.492792 33.7523 0.573753 33.7324C0.6554 33.7118 0.734303 33.7015 0.810461 33.7015C0.885247 33.7015 0.951113 33.7084 1.00806 33.7221C1.06501 33.7358 1.11647 33.7578 1.16243 33.788C1.21183 33.8209 1.24923 33.8607 1.27461 33.9074C1.3 33.954 1.31269 34.0086 1.31269 34.071C1.31269 34.1561 1.2825 34.2305 1.22213 34.2943C1.16243 34.3575 1.09177 34.3973 1.01012 34.4137V34.4281C1.04305 34.4336 1.08079 34.4453 1.12333 34.4631C1.16587 34.4803 1.20189 34.5019 1.23139 34.528ZM2.70412 34.4991C2.70412 34.7743 2.6609 34.9763 2.57445 35.1053C2.48868 35.2336 2.35524 35.2978 2.1741 35.2978C1.99023 35.2978 1.85575 35.2326 1.77067 35.1022C1.68628 34.9719 1.64408 34.7715 1.64408 34.5012C1.64408 34.2288 1.68697 34.0278 1.77273 33.8981C1.85849 33.7677 1.99228 33.7026 2.1741 33.7026C2.35798 33.7026 2.49211 33.7688 2.57651 33.9012C2.66158 34.0329 2.70412 34.2322 2.70412 34.4991ZM2.43345 34.9664C2.45747 34.9108 2.47359 34.8456 2.48182 34.7708C2.49074 34.6954 2.4952 34.6048 2.4952 34.4991C2.4952 34.3949 2.49074 34.3043 2.48182 34.2274C2.47359 34.1506 2.45712 34.0854 2.43242 34.0319C2.40841 33.9791 2.37548 33.9393 2.33362 33.9125C2.29246 33.8858 2.23928 33.8724 2.1741 33.8724C2.10961 33.8724 2.05609 33.8858 2.01355 33.9125C1.9717 33.9393 1.93842 33.9798 1.91372 34.034C1.8904 34.0847 1.87427 34.1509 1.86535 34.2326C1.85712 34.3142 1.853 34.4038 1.853 34.5012C1.853 34.6082 1.85678 34.6978 1.86432 34.7698C1.87187 34.8419 1.888 34.9063 1.9127 34.9633C1.93534 35.0168 1.96724 35.0576 2.00841 35.0858C2.05026 35.1139 2.10549 35.128 2.1741 35.128C2.2386 35.128 2.29211 35.1146 2.33465 35.0878C2.37719 35.0611 2.41012 35.0206 2.43345 34.9664ZM3.75284 34.1585C3.75284 34.3122 3.72025 34.4264 3.65507 34.5012C3.59058 34.576 3.49727 34.6134 3.37514 34.6134C3.25027 34.6134 3.15593 34.576 3.09212 34.5012C3.02831 34.4264 2.99641 34.3125 2.99641 34.1595C2.99641 34.0058 3.029 33.8916 3.09418 33.8168C3.15936 33.742 3.25301 33.7046 3.37514 33.7046C3.49932 33.7046 3.59332 33.7424 3.65713 33.8178C3.72094 33.8933 3.75284 34.0069 3.75284 34.1585ZM4.46399 33.7334L3.66125 35.2659H3.49143L4.29418 33.7334H4.46399ZM4.95799 34.8408C4.95799 34.9945 4.9254 35.1088 4.86022 35.1835C4.79504 35.2583 4.70139 35.2957 4.57926 35.2957C4.45507 35.2957 4.36108 35.258 4.29727 35.1825C4.23346 35.107 4.20156 34.9935 4.20156 34.8419C4.20156 34.6882 4.2338 34.5739 4.2983 34.4991C4.36348 34.4244 4.45713 34.387 4.57926 34.387C4.70413 34.387 4.79847 34.4244 4.86228 34.4991C4.92609 34.5739 4.95799 34.6878 4.95799 34.8408ZM3.56965 34.1585C3.56965 34.0405 3.55421 33.9581 3.52334 33.9115C3.49315 33.8648 3.44375 33.8415 3.37514 33.8415C3.30515 33.8415 3.25507 33.8648 3.22488 33.9115C3.19469 33.9581 3.1796 34.0408 3.1796 34.1595C3.1796 34.2782 3.19469 34.3609 3.22488 34.4075C3.25507 34.4535 3.30515 34.4765 3.37514 34.4765C3.44375 34.4765 3.49315 34.4535 3.52334 34.4075C3.55421 34.3609 3.56965 34.2779 3.56965 34.1585ZM4.7748 34.8408C4.7748 34.7228 4.75936 34.6405 4.72849 34.5938C4.6983 34.5472 4.6489 34.5238 4.58029 34.5238C4.51031 34.5238 4.46022 34.5472 4.43003 34.5938C4.39984 34.6405 4.38475 34.7232 4.38475 34.8419C4.38475 34.9606 4.39984 35.0432 4.43003 35.0899C4.46022 35.1359 4.51031 35.1588 4.58029 35.1588C4.6489 35.1588 4.6983 35.1359 4.72849 35.0899C4.75936 35.0432 4.7748 34.9602 4.7748 34.8408Z" fill="black"/>
<path d="M17.2174 69.6288C17.1844 69.6432 17.1544 69.6567 17.1274 69.6693C17.101 69.6819 17.0662 69.6951 17.0229 69.7089C16.9863 69.7203 16.9464 69.7299 16.9032 69.7377C16.8605 69.7461 16.8134 69.7503 16.7618 69.7503C16.6645 69.7503 16.576 69.7368 16.4961 69.7098C16.4169 69.6822 16.3478 69.6393 16.289 69.581C16.2314 69.524 16.1863 69.4517 16.1539 69.364C16.1215 69.2758 16.1053 69.1734 16.1053 69.0569C16.1053 68.9465 16.1209 68.8477 16.1521 68.7607C16.1833 68.6736 16.2284 68.6001 16.2872 68.54C16.3442 68.4818 16.413 68.4374 16.4934 68.4068C16.5745 68.3761 16.6642 68.3608 16.7627 68.3608C16.8347 68.3608 16.9065 68.3695 16.9779 68.3869C17.0499 68.4044 17.1298 68.435 17.2174 68.4788V68.6904H17.2039C17.1301 68.6286 17.0568 68.5836 16.9842 68.5553C16.9116 68.5271 16.8338 68.513 16.751 68.513C16.6831 68.513 16.6219 68.5241 16.5673 68.5463C16.5132 68.5679 16.4649 68.6019 16.4223 68.6481C16.3809 68.6931 16.3484 68.7502 16.325 68.8192C16.3022 68.8876 16.2908 68.9669 16.2908 69.0569C16.2908 69.1512 16.3034 69.2322 16.3286 69.3001C16.3544 69.3679 16.3875 69.4231 16.4277 69.4658C16.4697 69.5102 16.5186 69.5432 16.5745 69.5648C16.6309 69.5858 16.6903 69.5963 16.7528 69.5963C16.8386 69.5963 16.9191 69.5816 16.9941 69.5522C17.0692 69.5228 17.1394 69.4787 17.2048 69.4198H17.2174V69.6288ZM17.6272 69.726H17.4579V68.3248H17.6272V69.726ZM18.7438 69.726H18.5754V69.6189C18.5604 69.6291 18.54 69.6435 18.5142 69.6621C18.489 69.6801 18.4644 69.6945 18.4403 69.7053C18.4121 69.7191 18.3797 69.7305 18.3431 69.7395C18.3065 69.7491 18.2635 69.7539 18.2143 69.7539C18.1237 69.7539 18.0468 69.7239 17.9838 69.6639C17.9207 69.6038 17.8892 69.5273 17.8892 69.4342C17.8892 69.358 17.9054 69.2965 17.9379 69.2496C17.9709 69.2022 18.0177 69.165 18.0783 69.138C18.1396 69.111 18.2131 69.0926 18.299 69.083C18.3848 69.0734 18.477 69.0662 18.5754 69.0614V69.0353C18.5754 68.9969 18.5685 68.9651 18.5547 68.9399C18.5415 68.9146 18.5223 68.8948 18.4971 68.8804C18.4731 68.8666 18.4442 68.8573 18.4106 68.8525C18.377 68.8477 18.3419 68.8453 18.3053 68.8453C18.2608 68.8453 18.2113 68.8513 18.1567 68.8633C18.102 68.8747 18.0456 68.8915 17.9874 68.9137H17.9784V68.7417C18.0114 68.7327 18.0591 68.7228 18.1216 68.712C18.184 68.7012 18.2455 68.6958 18.3062 68.6958C18.377 68.6958 18.4385 68.7018 18.4908 68.7138C18.5436 68.7252 18.5892 68.745 18.6277 68.7733C18.6655 68.8009 18.6943 68.8366 18.7141 68.8804C18.7339 68.9243 18.7438 68.9786 18.7438 69.0434V69.726ZM18.5754 69.4784V69.1983C18.5238 69.2013 18.4629 69.2058 18.3926 69.2118C18.323 69.2178 18.2677 69.2265 18.2269 69.2379C18.1783 69.2517 18.139 69.2734 18.109 69.3028C18.0789 69.3316 18.0639 69.3715 18.0639 69.4225C18.0639 69.4802 18.0813 69.5237 18.1162 69.5531C18.151 69.5819 18.2041 69.5963 18.2755 69.5963C18.335 69.5963 18.3893 69.5849 18.4385 69.5621C18.4878 69.5387 18.5334 69.5108 18.5754 69.4784ZM19.7884 69.436C19.7884 69.5279 19.7503 69.6032 19.6741 69.6621C19.5984 69.7209 19.4949 69.7503 19.3634 69.7503C19.2889 69.7503 19.2205 69.7416 19.1581 69.7242C19.0962 69.7062 19.0443 69.6867 19.0023 69.6657V69.4757H19.0113C19.0647 69.5159 19.1241 69.548 19.1896 69.572C19.255 69.5954 19.3177 69.6071 19.3778 69.6071C19.4522 69.6071 19.5105 69.5951 19.5525 69.5711C19.5945 69.5471 19.6155 69.5093 19.6155 69.4577C19.6155 69.418 19.6041 69.388 19.5813 69.3676C19.5585 69.3472 19.5147 69.3298 19.4498 69.3154C19.4258 69.31 19.3943 69.3037 19.3553 69.2965C19.3168 69.2893 19.2817 69.2815 19.2499 69.2731C19.1617 69.2496 19.0989 69.2154 19.0617 69.1704C19.0251 69.1248 19.0068 69.0689 19.0068 69.0029C19.0068 68.9615 19.0152 68.9225 19.032 68.8858C19.0494 68.8492 19.0755 68.8165 19.1103 68.7877C19.1439 68.7595 19.1866 68.7372 19.2382 68.721C19.2904 68.7042 19.3487 68.6958 19.4129 68.6958C19.4729 68.6958 19.5336 68.7033 19.5948 68.7183C19.6566 68.7327 19.708 68.7505 19.7488 68.7715V68.9525H19.7398C19.6966 68.9206 19.644 68.8939 19.5822 68.8723C19.5204 68.8501 19.4597 68.839 19.4003 68.839C19.3385 68.839 19.2862 68.851 19.2436 68.875C19.201 68.8984 19.1797 68.9336 19.1797 68.9804C19.1797 69.0218 19.1926 69.053 19.2184 69.074C19.2436 69.095 19.2844 69.1122 19.3409 69.1254C19.3721 69.1326 19.4069 69.1398 19.4453 69.147C19.4843 69.1542 19.5168 69.1608 19.5426 69.1668C19.6212 69.1848 19.6819 69.2157 19.7245 69.2595C19.7671 69.304 19.7884 69.3628 19.7884 69.436ZM20.7502 69.436C20.7502 69.5279 20.7121 69.6032 20.6358 69.6621C20.5602 69.7209 20.4566 69.7503 20.3251 69.7503C20.2507 69.7503 20.1822 69.7416 20.1198 69.7242C20.058 69.7062 20.006 69.6867 19.964 69.6657V69.4757H19.973C20.0265 69.5159 20.0859 69.548 20.1513 69.572C20.2168 69.5954 20.2795 69.6071 20.3395 69.6071C20.414 69.6071 20.4722 69.5951 20.5142 69.5711C20.5563 69.5471 20.5773 69.5093 20.5773 69.4577C20.5773 69.418 20.5659 69.388 20.5431 69.3676C20.5202 69.3472 20.4764 69.3298 20.4116 69.3154C20.3876 69.31 20.356 69.3037 20.317 69.2965C20.2786 69.2893 20.2435 69.2815 20.2117 69.2731C20.1234 69.2496 20.0607 69.2154 20.0235 69.1704C19.9868 69.1248 19.9685 69.0689 19.9685 69.0029C19.9685 68.9615 19.9769 68.9225 19.9937 68.8858C20.0111 68.8492 20.0373 68.8165 20.0721 68.7877C20.1057 68.7595 20.1483 68.7372 20.2 68.721C20.2522 68.7042 20.3104 68.6958 20.3747 68.6958C20.4347 68.6958 20.4953 68.7033 20.5566 68.7183C20.6184 68.7327 20.6697 68.7505 20.7106 68.7715V68.9525H20.7015C20.6583 68.9206 20.6058 68.8939 20.544 68.8723C20.4821 68.8501 20.4215 68.839 20.3621 68.839C20.3002 68.839 20.248 68.851 20.2054 68.875C20.1627 68.8984 20.1414 68.9336 20.1414 68.9804C20.1414 69.0218 20.1543 69.053 20.1801 69.074C20.2054 69.095 20.2462 69.1122 20.3026 69.1254C20.3338 69.1326 20.3687 69.1398 20.4071 69.147C20.4461 69.1542 20.4785 69.1608 20.5043 69.1668C20.583 69.1848 20.6436 69.2157 20.6862 69.2595C20.7289 69.304 20.7502 69.3628 20.7502 69.436ZM22.7124 69.726H22.5224L22.3909 69.3523H21.811L21.6795 69.726H21.4985L21.9866 68.3851H22.2243L22.7124 69.726ZM22.336 69.1992L22.101 68.5409L21.865 69.1992H22.336Z" fill="#2E3A59"/>
<path d="M29.7502 69.6288C29.7172 69.6432 29.6872 69.6567 29.6602 69.6693C29.6337 69.6819 29.5989 69.6951 29.5557 69.7089C29.5191 69.7203 29.4792 69.7299 29.4359 69.7377C29.3933 69.7461 29.3462 69.7503 29.2946 69.7503C29.1973 69.7503 29.1087 69.7368 29.0289 69.7098C28.9497 69.6822 28.8806 69.6393 28.8218 69.581C28.7641 69.524 28.7191 69.4517 28.6867 69.364C28.6543 69.2758 28.6381 69.1734 28.6381 69.0569C28.6381 68.9465 28.6537 68.8477 28.6849 68.7607C28.7161 68.6736 28.7611 68.6001 28.82 68.54C28.877 68.4818 28.9458 68.4374 29.0262 68.4068C29.1072 68.3761 29.197 68.3608 29.2955 68.3608C29.3675 68.3608 29.4392 68.3695 29.5107 68.3869C29.5827 68.4044 29.6626 68.435 29.7502 68.4788V68.6904H29.7367C29.6629 68.6286 29.5896 68.5836 29.517 68.5553C29.4443 68.5271 29.3666 68.513 29.2837 68.513C29.2159 68.513 29.1547 68.5241 29.1 68.5463C29.046 68.5679 28.9977 68.6019 28.9551 68.6481C28.9136 68.6931 28.8812 68.7502 28.8578 68.8192C28.835 68.8876 28.8236 68.9669 28.8236 69.0569C28.8236 69.1512 28.8362 69.2322 28.8614 69.3001C28.8872 69.3679 28.9202 69.4231 28.9605 69.4658C29.0025 69.5102 29.0514 69.5432 29.1072 69.5648C29.1637 69.5858 29.2231 69.5963 29.2855 69.5963C29.3714 69.5963 29.4518 69.5816 29.5269 69.5522C29.6019 69.5228 29.6722 69.4787 29.7376 69.4198H29.7502V69.6288ZM30.16 69.726H29.9907V68.3248H30.16V69.726ZM31.2766 69.726H31.1082V69.6189C31.0932 69.6291 31.0728 69.6435 31.047 69.6621C31.0217 69.6801 30.9971 69.6945 30.9731 69.7053C30.9449 69.7191 30.9125 69.7305 30.8759 69.7395C30.8392 69.7491 30.7963 69.7539 30.7471 69.7539C30.6564 69.7539 30.5796 69.7239 30.5166 69.6639C30.4535 69.6038 30.422 69.5273 30.422 69.4342C30.422 69.358 30.4382 69.2965 30.4706 69.2496C30.5036 69.2022 30.5505 69.165 30.6111 69.138C30.6723 69.111 30.7459 69.0926 30.8317 69.083C30.9176 69.0734 31.0097 69.0662 31.1082 69.0614V69.0353C31.1082 68.9969 31.1013 68.9651 31.0875 68.9399C31.0743 68.9146 31.0551 68.8948 31.0299 68.8804C31.0058 68.8666 30.977 68.8573 30.9434 68.8525C30.9098 68.8477 30.8747 68.8453 30.838 68.8453C30.7936 68.8453 30.7441 68.8513 30.6895 68.8633C30.6348 68.8747 30.5784 68.8915 30.5202 68.9137H30.5112V68.7417C30.5442 68.7327 30.5919 68.7228 30.6543 68.712C30.7168 68.7012 30.7783 68.6958 30.8389 68.6958C30.9098 68.6958 30.9713 68.7018 31.0235 68.7138C31.0764 68.7252 31.122 68.745 31.1604 68.7733C31.1982 68.8009 31.2271 68.8366 31.2469 68.8804C31.2667 68.9243 31.2766 68.9786 31.2766 69.0434V69.726ZM31.1082 69.4784V69.1983C31.0566 69.2013 30.9956 69.2058 30.9254 69.2118C30.8558 69.2178 30.8005 69.2265 30.7597 69.2379C30.7111 69.2517 30.6717 69.2734 30.6417 69.3028C30.6117 69.3316 30.5967 69.3715 30.5967 69.4225C30.5967 69.4802 30.6141 69.5237 30.6489 69.5531C30.6838 69.5819 30.7369 69.5963 30.8083 69.5963C30.8678 69.5963 30.9221 69.5849 30.9713 69.5621C31.0205 69.5387 31.0662 69.5108 31.1082 69.4784ZM32.3212 69.436C32.3212 69.5279 32.2831 69.6032 32.2068 69.6621C32.1312 69.7209 32.0276 69.7503 31.8962 69.7503C31.8217 69.7503 31.7533 69.7416 31.6908 69.7242C31.629 69.7062 31.5771 69.6867 31.535 69.6657V69.4757H31.544C31.5975 69.5159 31.6569 69.548 31.7224 69.572C31.7878 69.5954 31.8505 69.6071 31.9106 69.6071C31.985 69.6071 32.0432 69.5951 32.0853 69.5711C32.1273 69.5471 32.1483 69.5093 32.1483 69.4577C32.1483 69.418 32.1369 69.388 32.1141 69.3676C32.0913 69.3472 32.0474 69.3298 31.9826 69.3154C31.9586 69.31 31.9271 69.3037 31.888 69.2965C31.8496 69.2893 31.8145 69.2815 31.7827 69.2731C31.6944 69.2496 31.6317 69.2154 31.5945 69.1704C31.5579 69.1248 31.5395 69.0689 31.5395 69.0029C31.5395 68.9615 31.548 68.9225 31.5648 68.8858C31.5822 68.8492 31.6083 68.8165 31.6431 68.7877C31.6767 68.7595 31.7193 68.7372 31.771 68.721C31.8232 68.7042 31.8814 68.6958 31.9457 68.6958C32.0057 68.6958 32.0663 68.7033 32.1276 68.7183C32.1894 68.7327 32.2407 68.7505 32.2816 68.7715V68.9525H32.2726C32.2293 68.9206 32.1768 68.8939 32.115 68.8723C32.0531 68.8501 31.9925 68.839 31.9331 68.839C31.8712 68.839 31.819 68.851 31.7764 68.875C31.7338 68.8984 31.7124 68.9336 31.7124 68.9804C31.7124 69.0218 31.7254 69.053 31.7512 69.074C31.7764 69.095 31.8172 69.1122 31.8736 69.1254C31.9049 69.1326 31.9397 69.1398 31.9781 69.147C32.0171 69.1542 32.0495 69.1608 32.0754 69.1668C32.154 69.1848 32.2146 69.2157 32.2573 69.2595C32.2999 69.304 32.3212 69.3628 32.3212 69.436ZM33.2829 69.436C33.2829 69.5279 33.2448 69.6032 33.1686 69.6621C33.0929 69.7209 32.9894 69.7503 32.8579 69.7503C32.7835 69.7503 32.715 69.7416 32.6526 69.7242C32.5908 69.7062 32.5388 69.6867 32.4968 69.6657V69.4757H32.5058C32.5592 69.5159 32.6187 69.548 32.6841 69.572C32.7495 69.5954 32.8123 69.6071 32.8723 69.6071C32.9468 69.6071 33.005 69.5951 33.047 69.5711C33.089 69.5471 33.1101 69.5093 33.1101 69.4577C33.1101 69.418 33.0986 69.388 33.0758 69.3676C33.053 69.3472 33.0092 69.3298 32.9444 69.3154C32.9203 69.31 32.8888 69.3037 32.8498 69.2965C32.8114 69.2893 32.7763 69.2815 32.7444 69.2731C32.6562 69.2496 32.5935 69.2154 32.5562 69.1704C32.5196 69.1248 32.5013 69.0689 32.5013 69.0029C32.5013 68.9615 32.5097 68.9225 32.5265 68.8858C32.5439 68.8492 32.57 68.8165 32.6049 68.7877C32.6385 68.7595 32.6811 68.7372 32.7327 68.721C32.785 68.7042 32.8432 68.6958 32.9074 68.6958C32.9675 68.6958 33.0281 68.7033 33.0893 68.7183C33.1512 68.7327 33.2025 68.7505 33.2433 68.7715V68.9525H33.2343C33.1911 68.9206 33.1386 68.8939 33.0767 68.8723C33.0149 68.8501 32.9543 68.839 32.8948 68.839C32.833 68.839 32.7808 68.851 32.7381 68.875C32.6955 68.8984 32.6742 68.9336 32.6742 68.9804C32.6742 69.0218 32.6871 69.053 32.7129 69.074C32.7381 69.095 32.779 69.1122 32.8354 69.1254C32.8666 69.1326 32.9014 69.1398 32.9399 69.147C32.9789 69.1542 33.0113 69.1608 33.0371 69.1668C33.1158 69.1848 33.1764 69.2157 33.219 69.2595C33.2616 69.304 33.2829 69.3628 33.2829 69.436ZM35.1993 69.3136C35.1993 69.3802 35.1866 69.439 35.1614 69.4901C35.1362 69.5411 35.1023 69.5831 35.0597 69.6161C35.0092 69.6558 34.9537 69.684 34.8931 69.7008C34.833 69.7176 34.7565 69.726 34.6634 69.726H34.188V68.3851H34.5851C34.683 68.3851 34.7562 68.3887 34.8048 68.3959C34.8535 68.4032 34.9 68.4182 34.9444 68.441C34.9936 68.4668 35.0294 68.5001 35.0516 68.5409C35.0738 68.5812 35.0849 68.6295 35.0849 68.6859C35.0849 68.7496 35.0687 68.8039 35.0363 68.8489C35.0038 68.8933 34.9606 68.9291 34.9066 68.9561V68.9633C34.9972 68.9819 35.0687 69.0218 35.1209 69.083C35.1731 69.1437 35.1993 69.2205 35.1993 69.3136ZM34.8994 68.7093C34.8994 68.6769 34.894 68.6496 34.8832 68.6274C34.8724 68.6052 34.855 68.5872 34.8309 68.5733C34.8027 68.5571 34.7685 68.5472 34.7283 68.5436C34.6881 68.5394 34.6382 68.5373 34.5788 68.5373H34.3663V68.9246H34.5968C34.6526 68.9246 34.6971 68.9219 34.7301 68.9164C34.7631 68.9104 34.7937 68.8984 34.8219 68.8804C34.8502 68.8624 34.87 68.8393 34.8814 68.8111C34.8934 68.7823 34.8994 68.7484 34.8994 68.7093ZM35.0137 69.3208C35.0137 69.2667 35.0056 69.2238 34.9894 69.192C34.9732 69.1602 34.9438 69.1332 34.9012 69.111C34.8724 69.096 34.8372 69.0863 34.7958 69.0821C34.755 69.0773 34.7052 69.0749 34.6463 69.0749H34.3663V69.5738H34.6022C34.6803 69.5738 34.7442 69.5699 34.794 69.5621C34.8438 69.5537 34.8847 69.5387 34.9165 69.5171C34.9501 69.4937 34.9747 69.467 34.9903 69.4369C35.0059 69.4069 35.0137 69.3682 35.0137 69.3208Z" fill="#2E3A59"/>
<path d="M42.283 69.6288C42.25 69.6432 42.22 69.6567 42.193 69.6693C42.1666 69.6819 42.1317 69.6951 42.0885 69.7089C42.0519 69.7203 42.012 69.7299 41.9687 69.7377C41.9261 69.7461 41.879 69.7503 41.8274 69.7503C41.7301 69.7503 41.6416 69.7368 41.5617 69.7098C41.4825 69.6822 41.4134 69.6393 41.3546 69.581C41.297 69.524 41.2519 69.4517 41.2195 69.364C41.1871 69.2758 41.1709 69.1734 41.1709 69.0569C41.1709 68.9465 41.1865 68.8477 41.2177 68.7607C41.2489 68.6736 41.294 68.6001 41.3528 68.54C41.4098 68.4818 41.4786 68.4374 41.559 68.4068C41.6401 68.3761 41.7298 68.3608 41.8283 68.3608C41.9003 68.3608 41.972 68.3695 42.0435 68.3869C42.1155 68.4044 42.1954 68.435 42.283 68.4788V68.6904H42.2695C42.1957 68.6286 42.1224 68.5836 42.0498 68.5553C41.9771 68.5271 41.8994 68.513 41.8166 68.513C41.7487 68.513 41.6875 68.5241 41.6328 68.5463C41.5788 68.5679 41.5305 68.6019 41.4879 68.6481C41.4464 68.6931 41.414 68.7502 41.3906 68.8192C41.3678 68.8876 41.3564 68.9669 41.3564 69.0569C41.3564 69.1512 41.369 69.2322 41.3942 69.3001C41.42 69.3679 41.453 69.4231 41.4933 69.4658C41.5353 69.5102 41.5842 69.5432 41.6401 69.5648C41.6965 69.5858 41.7559 69.5963 41.8184 69.5963C41.9042 69.5963 41.9847 69.5816 42.0597 69.5522C42.1347 69.5228 42.205 69.4787 42.2704 69.4198H42.283V69.6288ZM42.6928 69.726H42.5235V68.3248H42.6928V69.726ZM43.8094 69.726H43.641V69.6189C43.626 69.6291 43.6056 69.6435 43.5798 69.6621C43.5546 69.6801 43.5299 69.6945 43.5059 69.7053C43.4777 69.7191 43.4453 69.7305 43.4087 69.7395C43.372 69.7491 43.3291 69.7539 43.2799 69.7539C43.1892 69.7539 43.1124 69.7239 43.0494 69.6639C42.9863 69.6038 42.9548 69.5273 42.9548 69.4342C42.9548 69.358 42.971 69.2965 43.0034 69.2496C43.0365 69.2022 43.0833 69.165 43.1439 69.138C43.2052 69.111 43.2787 69.0926 43.3645 69.083C43.4504 69.0734 43.5425 69.0662 43.641 69.0614V69.0353C43.641 68.9969 43.6341 68.9651 43.6203 68.9399C43.6071 68.9146 43.5879 68.8948 43.5627 68.8804C43.5386 68.8666 43.5098 68.8573 43.4762 68.8525C43.4426 68.8477 43.4075 68.8453 43.3708 68.8453C43.3264 68.8453 43.2769 68.8513 43.2223 68.8633C43.1676 68.8747 43.1112 68.8915 43.053 68.9137H43.044V68.7417C43.077 68.7327 43.1247 68.7228 43.1871 68.712C43.2496 68.7012 43.3111 68.6958 43.3717 68.6958C43.4426 68.6958 43.5041 68.7018 43.5564 68.7138C43.6092 68.7252 43.6548 68.745 43.6932 68.7733C43.7311 68.8009 43.7599 68.8366 43.7797 68.8804C43.7995 68.9243 43.8094 68.9786 43.8094 69.0434V69.726ZM43.641 69.4784V69.1983C43.5894 69.2013 43.5284 69.2058 43.4582 69.2118C43.3886 69.2178 43.3333 69.2265 43.2925 69.2379C43.2439 69.2517 43.2046 69.2734 43.1745 69.3028C43.1445 69.3316 43.1295 69.3715 43.1295 69.4225C43.1295 69.4802 43.1469 69.5237 43.1817 69.5531C43.2166 69.5819 43.2697 69.5963 43.3411 69.5963C43.4006 69.5963 43.4549 69.5849 43.5041 69.5621C43.5534 69.5387 43.599 69.5108 43.641 69.4784ZM44.854 69.436C44.854 69.5279 44.8159 69.6032 44.7396 69.6621C44.664 69.7209 44.5604 69.7503 44.429 69.7503C44.3545 69.7503 44.2861 69.7416 44.2236 69.7242C44.1618 69.7062 44.1099 69.6867 44.0678 69.6657V69.4757H44.0769C44.1303 69.5159 44.1897 69.548 44.2552 69.572C44.3206 69.5954 44.3833 69.6071 44.4434 69.6071C44.5178 69.6071 44.576 69.5951 44.6181 69.5711C44.6601 69.5471 44.6811 69.5093 44.6811 69.4577C44.6811 69.418 44.6697 69.388 44.6469 69.3676C44.6241 69.3472 44.5802 69.3298 44.5154 69.3154C44.4914 69.31 44.4599 69.3037 44.4209 69.2965C44.3824 69.2893 44.3473 69.2815 44.3155 69.2731C44.2272 69.2496 44.1645 69.2154 44.1273 69.1704C44.0907 69.1248 44.0724 69.0689 44.0724 69.0029C44.0724 68.9615 44.0808 68.9225 44.0976 68.8858C44.115 68.8492 44.1411 68.8165 44.1759 68.7877C44.2095 68.7595 44.2522 68.7372 44.3038 68.721C44.356 68.7042 44.4142 68.6958 44.4785 68.6958C44.5385 68.6958 44.5992 68.7033 44.6604 68.7183C44.7222 68.7327 44.7736 68.7505 44.8144 68.7715V68.9525H44.8054C44.7621 68.9206 44.7096 68.8939 44.6478 68.8723C44.5859 68.8501 44.5253 68.839 44.4659 68.839C44.404 68.839 44.3518 68.851 44.3092 68.875C44.2666 68.8984 44.2453 68.9336 44.2453 68.9804C44.2453 69.0218 44.2582 69.053 44.284 69.074C44.3092 69.095 44.35 69.1122 44.4064 69.1254C44.4377 69.1326 44.4725 69.1398 44.5109 69.147C44.5499 69.1542 44.5823 69.1608 44.6082 69.1668C44.6868 69.1848 44.7474 69.2157 44.7901 69.2595C44.8327 69.304 44.854 69.3628 44.854 69.436ZM45.8158 69.436C45.8158 69.5279 45.7776 69.6032 45.7014 69.6621C45.6257 69.7209 45.5222 69.7503 45.3907 69.7503C45.3163 69.7503 45.2478 69.7416 45.1854 69.7242C45.1236 69.7062 45.0716 69.6867 45.0296 69.6657V69.4757H45.0386C45.092 69.5159 45.1515 69.548 45.2169 69.572C45.2823 69.5954 45.3451 69.6071 45.4051 69.6071C45.4796 69.6071 45.5378 69.5951 45.5798 69.5711C45.6218 69.5471 45.6429 69.5093 45.6429 69.4577C45.6429 69.418 45.6315 69.388 45.6086 69.3676C45.5858 69.3472 45.542 69.3298 45.4772 69.3154C45.4531 69.31 45.4216 69.3037 45.3826 69.2965C45.3442 69.2893 45.3091 69.2815 45.2772 69.2731C45.189 69.2496 45.1263 69.2154 45.089 69.1704C45.0524 69.1248 45.0341 69.0689 45.0341 69.0029C45.0341 68.9615 45.0425 68.9225 45.0593 68.8858C45.0767 68.8492 45.1028 68.8165 45.1377 68.7877C45.1713 68.7595 45.2139 68.7372 45.2655 68.721C45.3178 68.7042 45.376 68.6958 45.4402 68.6958C45.5003 68.6958 45.5609 68.7033 45.6221 68.7183C45.684 68.7327 45.7353 68.7505 45.7761 68.7715V68.9525H45.7671C45.7239 68.9206 45.6714 68.8939 45.6095 68.8723C45.5477 68.8501 45.4871 68.839 45.4276 68.839C45.3658 68.839 45.3136 68.851 45.2709 68.875C45.2283 68.8984 45.207 68.9336 45.207 68.9804C45.207 69.0218 45.2199 69.053 45.2457 69.074C45.2709 69.095 45.3118 69.1122 45.3682 69.1254C45.3994 69.1326 45.4342 69.1398 45.4727 69.147C45.5117 69.1542 45.5441 69.1608 45.5699 69.1668C45.6486 69.1848 45.7092 69.2157 45.7518 69.2595C45.7944 69.304 45.8158 69.3628 45.8158 69.436ZM47.7564 69.6288C47.7234 69.6432 47.6933 69.6567 47.6663 69.6693C47.6399 69.6819 47.6051 69.6951 47.5619 69.7089C47.5252 69.7203 47.4853 69.7299 47.4421 69.7377C47.3995 69.7461 47.3523 69.7503 47.3007 69.7503C47.2035 69.7503 47.1149 69.7368 47.0351 69.7098C46.9558 69.6822 46.8868 69.6393 46.8279 69.581C46.7703 69.524 46.7253 69.4517 46.6929 69.364C46.6604 69.2758 46.6442 69.1734 46.6442 69.0569C46.6442 68.9465 46.6598 68.8477 46.6911 68.7607C46.7223 68.6736 46.7673 68.6001 46.8261 68.54C46.8832 68.4818 46.9519 68.4374 47.0324 68.4068C47.1134 68.3761 47.2032 68.3608 47.3016 68.3608C47.3737 68.3608 47.4454 68.3695 47.5168 68.3869C47.5889 68.4044 47.6687 68.435 47.7564 68.4788V68.6904H47.7429C47.669 68.6286 47.5958 68.5836 47.5231 68.5553C47.4505 68.5271 47.3728 68.513 47.2899 68.513C47.2221 68.513 47.1608 68.5241 47.1062 68.5463C47.0522 68.5679 47.0038 68.6019 46.9612 68.6481C46.9198 68.6931 46.8874 68.7502 46.864 68.8192C46.8411 68.8876 46.8297 68.9669 46.8297 69.0569C46.8297 69.1512 46.8423 69.2322 46.8676 69.3001C46.8934 69.3679 46.9264 69.4231 46.9666 69.4658C47.0086 69.5102 47.0576 69.5432 47.1134 69.5648C47.1698 69.5858 47.2293 69.5963 47.2917 69.5963C47.3776 69.5963 47.458 69.5816 47.533 69.5522C47.6081 69.5228 47.6783 69.4787 47.7438 69.4198H47.7564V69.6288Z" fill="#2E3A59"/>
<path d="M54.8158 69.6288C54.7828 69.6432 54.7528 69.6567 54.7257 69.6693C54.6993 69.6819 54.6645 69.6951 54.6213 69.7089C54.5847 69.7203 54.5447 69.7299 54.5015 69.7377C54.4589 69.7461 54.4118 69.7503 54.3601 69.7503C54.2629 69.7503 54.1743 69.7368 54.0945 69.7098C54.0152 69.6822 53.9462 69.6393 53.8874 69.581C53.8297 69.524 53.7847 69.4517 53.7523 69.364C53.7199 69.2758 53.7037 69.1734 53.7037 69.0569C53.7037 68.9465 53.7193 68.8477 53.7505 68.7607C53.7817 68.6736 53.8267 68.6001 53.8856 68.54C53.9426 68.4818 54.0113 68.4374 54.0918 68.4068C54.1728 68.3761 54.2626 68.3608 54.361 68.3608C54.4331 68.3608 54.5048 68.3695 54.5763 68.3869C54.6483 68.4044 54.7281 68.435 54.8158 68.4788V68.6904H54.8023C54.7284 68.6286 54.6552 68.5836 54.5826 68.5553C54.5099 68.5271 54.4322 68.513 54.3493 68.513C54.2815 68.513 54.2203 68.5241 54.1656 68.5463C54.1116 68.5679 54.0633 68.6019 54.0206 68.6481C53.9792 68.6931 53.9468 68.7502 53.9234 68.8192C53.9006 68.8876 53.8892 68.9669 53.8892 69.0569C53.8892 69.1512 53.9018 69.2322 53.927 69.3001C53.9528 69.3679 53.9858 69.4231 54.026 69.4658C54.0681 69.5102 54.117 69.5432 54.1728 69.5648C54.2293 69.5858 54.2887 69.5963 54.3511 69.5963C54.437 69.5963 54.5174 69.5816 54.5925 69.5522C54.6675 69.5228 54.7378 69.4787 54.8032 69.4198H54.8158V69.6288ZM55.2255 69.726H55.0562V68.3248H55.2255V69.726ZM56.3422 69.726H56.1738V69.6189C56.1588 69.6291 56.1384 69.6435 56.1125 69.6621C56.0873 69.6801 56.0627 69.6945 56.0387 69.7053C56.0105 69.7191 55.9781 69.7305 55.9414 69.7395C55.9048 69.7491 55.8619 69.7539 55.8127 69.7539C55.722 69.7539 55.6452 69.7239 55.5821 69.6639C55.5191 69.6038 55.4876 69.5273 55.4876 69.4342C55.4876 69.358 55.5038 69.2965 55.5362 69.2496C55.5692 69.2022 55.6161 69.165 55.6767 69.138C55.7379 69.111 55.8115 69.0926 55.8973 69.083C55.9832 69.0734 56.0753 69.0662 56.1738 69.0614V69.0353C56.1738 68.9969 56.1669 68.9651 56.1531 68.9399C56.1399 68.9146 56.1206 68.8948 56.0954 68.8804C56.0714 68.8666 56.0426 68.8573 56.009 68.8525C55.9754 68.8477 55.9402 68.8453 55.9036 68.8453C55.8592 68.8453 55.8097 68.8513 55.755 68.8633C55.7004 68.8747 55.644 68.8915 55.5857 68.9137H55.5767V68.7417C55.6098 68.7327 55.6575 68.7228 55.7199 68.712C55.7824 68.7012 55.8439 68.6958 55.9045 68.6958C55.9754 68.6958 56.0369 68.7018 56.0891 68.7138C56.142 68.7252 56.1876 68.745 56.226 68.7733C56.2638 68.8009 56.2926 68.8366 56.3125 68.8804C56.3323 68.9243 56.3422 68.9786 56.3422 69.0434V69.726ZM56.1738 69.4784V69.1983C56.1222 69.2013 56.0612 69.2058 55.991 69.2118C55.9213 69.2178 55.8661 69.2265 55.8253 69.2379C55.7767 69.2517 55.7373 69.2734 55.7073 69.3028C55.6773 69.3316 55.6623 69.3715 55.6623 69.4225C55.6623 69.4802 55.6797 69.5237 55.7145 69.5531C55.7493 69.5819 55.8025 69.5963 55.8739 69.5963C55.9333 69.5963 55.9877 69.5849 56.0369 69.5621C56.0861 69.5387 56.1318 69.5108 56.1738 69.4784ZM57.3868 69.436C57.3868 69.5279 57.3487 69.6032 57.2724 69.6621C57.1968 69.7209 57.0932 69.7503 56.9617 69.7503C56.8873 69.7503 56.8189 69.7416 56.7564 69.7242C56.6946 69.7062 56.6426 69.6867 56.6006 69.6657V69.4757H56.6096C56.6631 69.5159 56.7225 69.548 56.7879 69.572C56.8534 69.5954 56.9161 69.6071 56.9761 69.6071C57.0506 69.6071 57.1088 69.5951 57.1508 69.5711C57.1929 69.5471 57.2139 69.5093 57.2139 69.4577C57.2139 69.418 57.2025 69.388 57.1797 69.3676C57.1568 69.3472 57.113 69.3298 57.0482 69.3154C57.0242 69.31 56.9927 69.3037 56.9536 69.2965C56.9152 69.2893 56.8801 69.2815 56.8483 69.2731C56.76 69.2496 56.6973 69.2154 56.6601 69.1704C56.6234 69.1248 56.6051 69.0689 56.6051 69.0029C56.6051 68.9615 56.6135 68.9225 56.6303 68.8858C56.6478 68.8492 56.6739 68.8165 56.7087 68.7877C56.7423 68.7595 56.7849 68.7372 56.8366 68.721C56.8888 68.7042 56.947 68.6958 57.0113 68.6958C57.0713 68.6958 57.1319 68.7033 57.1932 68.7183C57.255 68.7327 57.3063 68.7505 57.3472 68.7715V68.9525H57.3382C57.2949 68.9206 57.2424 68.8939 57.1806 68.8723C57.1187 68.8501 57.0581 68.839 56.9987 68.839C56.9368 68.839 56.8846 68.851 56.842 68.875C56.7993 68.8984 56.778 68.9336 56.778 68.9804C56.778 69.0218 56.7909 69.053 56.8168 69.074C56.842 69.095 56.8828 69.1122 56.9392 69.1254C56.9704 69.1326 57.0053 69.1398 57.0437 69.147C57.0827 69.1542 57.1151 69.1608 57.1409 69.1668C57.2196 69.1848 57.2802 69.2157 57.3228 69.2595C57.3655 69.304 57.3868 69.3628 57.3868 69.436ZM58.3485 69.436C58.3485 69.5279 58.3104 69.6032 58.2342 69.6621C58.1585 69.7209 58.055 69.7503 57.9235 69.7503C57.849 69.7503 57.7806 69.7416 57.7182 69.7242C57.6563 69.7062 57.6044 69.6867 57.5624 69.6657V69.4757H57.5714C57.6248 69.5159 57.6842 69.548 57.7497 69.572C57.8151 69.5954 57.8779 69.6071 57.9379 69.6071C58.0123 69.6071 58.0706 69.5951 58.1126 69.5711C58.1546 69.5471 58.1756 69.5093 58.1756 69.4577C58.1756 69.418 58.1642 69.388 58.1414 69.3676C58.1186 69.3472 58.0748 69.3298 58.0099 69.3154C57.9859 69.31 57.9544 69.3037 57.9154 69.2965C57.877 69.2893 57.8418 69.2815 57.81 69.2731C57.7218 69.2496 57.659 69.2154 57.6218 69.1704C57.5852 69.1248 57.5669 69.0689 57.5669 69.0029C57.5669 68.9615 57.5753 68.9225 57.5921 68.8858C57.6095 68.8492 57.6356 68.8165 57.6704 68.7877C57.7041 68.7595 57.7467 68.7372 57.7983 68.721C57.8505 68.7042 57.9088 68.6958 57.973 68.6958C58.0331 68.6958 58.0937 68.7033 58.1549 68.7183C58.2168 68.7327 58.2681 68.7505 58.3089 68.7715V68.9525H58.2999C58.2567 68.9206 58.2041 68.8939 58.1423 68.8723C58.0805 68.8501 58.0198 68.839 57.9604 68.839C57.8986 68.839 57.8463 68.851 57.8037 68.875C57.7611 68.8984 57.7398 68.9336 57.7398 68.9804C57.7398 69.0218 57.7527 69.053 57.7785 69.074C57.8037 69.095 57.8445 69.1122 57.901 69.1254C57.9322 69.1326 57.967 69.1398 58.0054 69.147C58.0445 69.1542 58.0769 69.1608 58.1027 69.1668C58.1813 69.1848 58.242 69.2157 58.2846 69.2595C58.3272 69.304 58.3485 69.3628 58.3485 69.436ZM60.3864 69.0569C60.3864 69.1788 60.3597 69.2893 60.3063 69.3883C60.2534 69.4874 60.1829 69.5642 60.0946 69.6189C60.0334 69.6567 59.965 69.684 59.8893 69.7008C59.8143 69.7176 59.7152 69.726 59.5921 69.726H59.2536V68.3851H59.5885C59.7194 68.3851 59.8233 68.3947 59.9001 68.414C59.9776 68.4326 60.043 68.4584 60.0964 68.4914C60.1877 68.5484 60.2588 68.6244 60.3099 68.7192C60.3609 68.8141 60.3864 68.9267 60.3864 69.0569ZM60.2 69.0542C60.2 68.9492 60.1817 68.8606 60.1451 68.7886C60.1084 68.7165 60.0538 68.6598 59.9812 68.6184C59.9283 68.5884 59.8722 68.5676 59.8128 68.5562C59.7533 68.5442 59.6822 68.5382 59.5994 68.5382H59.4319V69.5729H59.5994C59.6852 69.5729 59.7599 69.5666 59.8236 69.554C59.8878 69.5414 59.9467 69.518 60.0001 69.4838C60.0667 69.4411 60.1166 69.385 60.1496 69.3154C60.1832 69.2457 60.2 69.1587 60.2 69.0542Z" fill="#2E3A59"/>
<path d="M67.3486 69.6288C67.3156 69.6432 67.2855 69.6567 67.2585 69.6693C67.2321 69.6819 67.1973 69.6951 67.1541 69.7089C67.1174 69.7203 67.0775 69.7299 67.0343 69.7377C66.9917 69.7461 66.9445 69.7503 66.8929 69.7503C66.7957 69.7503 66.7071 69.7368 66.6273 69.7098C66.548 69.6822 66.479 69.6393 66.4201 69.581C66.3625 69.524 66.3175 69.4517 66.2851 69.364C66.2526 69.2758 66.2364 69.1734 66.2364 69.0569C66.2364 68.9465 66.252 68.8477 66.2833 68.7607C66.3145 68.6736 66.3595 68.6001 66.4183 68.54C66.4754 68.4818 66.5441 68.4374 66.6246 68.4068C66.7056 68.3761 66.7954 68.3608 66.8938 68.3608C66.9659 68.3608 67.0376 68.3695 67.109 68.3869C67.1811 68.4044 67.2609 68.435 67.3486 68.4788V68.6904H67.3351C67.2612 68.6286 67.188 68.5836 67.1153 68.5553C67.0427 68.5271 66.965 68.513 66.8821 68.513C66.8143 68.513 66.753 68.5241 66.6984 68.5463C66.6444 68.5679 66.596 68.6019 66.5534 68.6481C66.512 68.6931 66.4796 68.7502 66.4562 68.8192C66.4333 68.8876 66.4219 68.9669 66.4219 69.0569C66.4219 69.1512 66.4345 69.2322 66.4598 69.3001C66.4856 69.3679 66.5186 69.4231 66.5588 69.4658C66.6008 69.5102 66.6498 69.5432 66.7056 69.5648C66.762 69.5858 66.8215 69.5963 66.8839 69.5963C66.9698 69.5963 67.0502 69.5816 67.1252 69.5522C67.2003 69.5228 67.2705 69.4787 67.336 69.4198H67.3486V69.6288ZM67.7583 69.726H67.589V68.3248H67.7583V69.726ZM68.875 69.726H68.7066V69.6189C68.6915 69.6291 68.6711 69.6435 68.6453 69.6621C68.6201 69.6801 68.5955 69.6945 68.5715 69.7053C68.5433 69.7191 68.5108 69.7305 68.4742 69.7395C68.4376 69.7491 68.3947 69.7539 68.3454 69.7539C68.2548 69.7539 68.178 69.7239 68.1149 69.6639C68.0519 69.6038 68.0204 69.5273 68.0204 69.4342C68.0204 69.358 68.0366 69.2965 68.069 69.2496C68.102 69.2022 68.1488 69.165 68.2095 69.138C68.2707 69.111 68.3442 69.0926 68.4301 69.083C68.5159 69.0734 68.6081 69.0662 68.7066 69.0614V69.0353C68.7066 68.9969 68.6997 68.9651 68.6858 68.9399C68.6726 68.9146 68.6534 68.8948 68.6282 68.8804C68.6042 68.8666 68.5754 68.8573 68.5418 68.8525C68.5081 68.8477 68.473 68.8453 68.4364 68.8453C68.392 68.8453 68.3424 68.8513 68.2878 68.8633C68.2332 68.8747 68.1768 68.8915 68.1185 68.9137H68.1095V68.7417C68.1425 68.7327 68.1903 68.7228 68.2527 68.712C68.3151 68.7012 68.3767 68.6958 68.4373 68.6958C68.5081 68.6958 68.5697 68.7018 68.6219 68.7138C68.6747 68.7252 68.7204 68.745 68.7588 68.7733C68.7966 68.8009 68.8254 68.8366 68.8452 68.8804C68.865 68.9243 68.875 68.9786 68.875 69.0434V69.726ZM68.7066 69.4784V69.1983C68.6549 69.2013 68.594 69.2058 68.5238 69.2118C68.4541 69.2178 68.3989 69.2265 68.3581 69.2379C68.3094 69.2517 68.2701 69.2734 68.2401 69.3028C68.2101 69.3316 68.1951 69.3715 68.1951 69.4225C68.1951 69.4802 68.2125 69.5237 68.2473 69.5531C68.2821 69.5819 68.3352 69.5963 68.4067 69.5963C68.4661 69.5963 68.5204 69.5849 68.5697 69.5621C68.6189 69.5387 68.6645 69.5108 68.7066 69.4784ZM69.9196 69.436C69.9196 69.5279 69.8814 69.6032 69.8052 69.6621C69.7295 69.7209 69.626 69.7503 69.4945 69.7503C69.4201 69.7503 69.3516 69.7416 69.2892 69.7242C69.2274 69.7062 69.1754 69.6867 69.1334 69.6657V69.4757H69.1424C69.1958 69.5159 69.2553 69.548 69.3207 69.572C69.3861 69.5954 69.4489 69.6071 69.5089 69.6071C69.5834 69.6071 69.6416 69.5951 69.6836 69.5711C69.7256 69.5471 69.7467 69.5093 69.7467 69.4577C69.7467 69.418 69.7352 69.388 69.7124 69.3676C69.6896 69.3472 69.6458 69.3298 69.581 69.3154C69.5569 69.31 69.5254 69.3037 69.4864 69.2965C69.448 69.2893 69.4129 69.2815 69.381 69.2731C69.2928 69.2496 69.2301 69.2154 69.1928 69.1704C69.1562 69.1248 69.1379 69.0689 69.1379 69.0029C69.1379 68.9615 69.1463 68.9225 69.1631 68.8858C69.1805 68.8492 69.2066 68.8165 69.2415 68.7877C69.2751 68.7595 69.3177 68.7372 69.3693 68.721C69.4216 68.7042 69.4798 68.6958 69.544 68.6958C69.6041 68.6958 69.6647 68.7033 69.7259 68.7183C69.7878 68.7327 69.8391 68.7505 69.8799 68.7715V68.9525H69.8709C69.8277 68.9206 69.7752 68.8939 69.7133 68.8723C69.6515 68.8501 69.5909 68.839 69.5314 68.839C69.4696 68.839 69.4174 68.851 69.3747 68.875C69.3321 68.8984 69.3108 68.9336 69.3108 68.9804C69.3108 69.0218 69.3237 69.053 69.3495 69.074C69.3747 69.095 69.4156 69.1122 69.472 69.1254C69.5032 69.1326 69.538 69.1398 69.5765 69.147C69.6155 69.1542 69.6479 69.1608 69.6737 69.1668C69.7524 69.1848 69.813 69.2157 69.8556 69.2595C69.8982 69.304 69.9196 69.3628 69.9196 69.436ZM70.8813 69.436C70.8813 69.5279 70.8432 69.6032 70.7669 69.6621C70.6913 69.7209 70.5877 69.7503 70.4563 69.7503C70.3818 69.7503 70.3134 69.7416 70.2509 69.7242C70.1891 69.7062 70.1372 69.6867 70.0952 69.6657V69.4757H70.1042C70.1576 69.5159 70.217 69.548 70.2825 69.572C70.3479 69.5954 70.4106 69.6071 70.4707 69.6071C70.5451 69.6071 70.6033 69.5951 70.6454 69.5711C70.6874 69.5471 70.7084 69.5093 70.7084 69.4577C70.7084 69.418 70.697 69.388 70.6742 69.3676C70.6514 69.3472 70.6076 69.3298 70.5427 69.3154C70.5187 69.31 70.4872 69.3037 70.4482 69.2965C70.4097 69.2893 70.3746 69.2815 70.3428 69.2731C70.2545 69.2496 70.1918 69.2154 70.1546 69.1704C70.118 69.1248 70.0997 69.0689 70.0997 69.0029C70.0997 68.9615 70.1081 68.9225 70.1249 68.8858C70.1423 68.8492 70.1684 68.8165 70.2032 68.7877C70.2368 68.7595 70.2795 68.7372 70.3311 68.721C70.3833 68.7042 70.4416 68.6958 70.5058 68.6958C70.5658 68.6958 70.6265 68.7033 70.6877 68.7183C70.7495 68.7327 70.8009 68.7505 70.8417 68.7715V68.9525H70.8327C70.7895 68.9206 70.7369 68.8939 70.6751 68.8723C70.6133 68.8501 70.5526 68.839 70.4932 68.839C70.4313 68.839 70.3791 68.851 70.3365 68.875C70.2939 68.8984 70.2726 68.9336 70.2726 68.9804C70.2726 69.0218 70.2855 69.053 70.3113 69.074C70.3365 69.095 70.3773 69.1122 70.4338 69.1254C70.465 69.1326 70.4998 69.1398 70.5382 69.147C70.5772 69.1542 70.6097 69.1608 70.6355 69.1668C70.7141 69.1848 70.7747 69.2157 70.8174 69.2595C70.86 69.304 70.8813 69.3628 70.8813 69.436ZM72.6697 69.726H71.7863V68.3851H72.6697V68.5436H71.9646V68.911H72.6697V69.0695H71.9646V69.5675H72.6697V69.726Z" fill="#2E3A59"/>
<defs>
<filter id="filter0_b_215_159" x="13.2629" y="31.1581" width="14.9134" height="34.514" filterUnits="userSpaceOnUse" color-interpolation-filters="sRGB">
<feFlood flood-opacity="0" result="BackgroundImageFix"/>
<feGaussianBlur in="BackgroundImageFix" stdDeviation="0.526932"/>
<feComposite in2="SourceAlpha" operator="in" result="effect1_backgroundBlur_215_159"/>
<feBlend mode="normal" in="SourceGraphic" in2="effect1_backgroundBlur_215_159" result="shape"/>
</filter>
<filter id="filter1_b_215_159" x="60.7787" y="44.8583" width="15.2504" height="20.8138" filterUnits="userSpaceOnUse" color-interpolation-filters="sRGB">
<feFlood flood-opacity="0" result="BackgroundImageFix"/>
<feGaussianBlur in="BackgroundImageFix" stdDeviation="0.526932"/>
<feComposite in2="SourceAlpha" operator="in" result="effect1_backgroundBlur_215_159"/>
<feBlend mode="normal" in="SourceGraphic" in2="effect1_backgroundBlur_215_159" result="shape"/>
</filter>
<filter id="filter2_b_215_159" x="29.1016" y="40.1159" width="15.2504" height="25.5562" filterUnits="userSpaceOnUse" color-interpolation-filters="sRGB">
<feFlood flood-opacity="0" result="BackgroundImageFix"/>
<feGaussianBlur in="BackgroundImageFix" stdDeviation="0.526932"/>
<feComposite in2="SourceAlpha" operator="in" result="effect1_backgroundBlur_215_159"/>
<feBlend mode="normal" in="SourceGraphic" in2="effect1_backgroundBlur_215_159" result="shape"/>
</filter>
<filter id="filter3_b_215_159" x="76.9543" y="5.86533" width="14.9134" height="59.8068" filterUnits="userSpaceOnUse" color-interpolation-filters="sRGB">
<feFlood flood-opacity="0" result="BackgroundImageFix"/>
<feGaussianBlur in="BackgroundImageFix" stdDeviation="0.526932"/>
<feComposite in2="SourceAlpha" operator="in" result="effect1_backgroundBlur_215_159"/>
<feBlend mode="normal" in="SourceGraphic" in2="effect1_backgroundBlur_215_159" result="shape"/>
</filter>
<filter id="filter4_b_215_159" x="45.2771" y="16.6674" width="14.5764" height="49.0047" filterUnits="userSpaceOnUse" color-interpolation-filters="sRGB">
<feFlood flood-opacity="0" result="BackgroundImageFix"/>
<feGaussianBlur in="BackgroundImageFix" stdDeviation="0.526932"/>
<feComposite in2="SourceAlpha" operator="in" result="effect1_backgroundBlur_215_159"/>
<feBlend mode="normal" in="SourceGraphic" in2="effect1_backgroundBlur_215_159" result="shape"/>
</filter>
<filter id="filter5_b_215_159" x="55.681" y="24.8349" width="24.4349" height="13.7003" filterUnits="userSpaceOnUse" color-interpolation-filters="sRGB">
<feFlood flood-opacity="0" result="BackgroundImageFix"/>
<feGaussianBlur in="BackgroundImageFix" stdDeviation="1.05386"/>
<feComposite in2="SourceAlpha" operator="in" result="effect1_backgroundBlur_215_159"/>
<feBlend mode="normal" in="SourceGraphic" in2="effect1_backgroundBlur_215_159" result="shape"/>
</filter>
</defs>
</svg>
